<svg width="352" height="137" viewBox="0 0 705 276" fill="none" xmlns="http://www.w3.org/2000/svg">
<path d="M55.6875 128.606V2.45653C59.3003 1.97531 62.7381 1.1288 66.1779 1.1203C94.9429 1.0492 123.711 0.899865 152.473 1.23751C178.453 1.54247 193.241 16.0779 194.049 41.8844C194.478 55.5737 194.491 69.2956 194.107 82.9864C193.386 108.701 177.722 126.679 154.444 129.127C129.245 131.776 110.888 118.68 104.032 93.2851C103.262 90.432 101.92 87.7331 97.9941 85.1595V128.606H55.6875ZM147.067 91.0044C148.255 90.4674 149.442 89.9306 150.63 89.3938V42.0907H98.1644C128.401 44.4641 144.976 59.8009 147.067 91.0044Z" fill="white"/>
<path d="M501.527 91.2021H548.608V130.332C512.374 130.332 476.834 131.164 441.363 129.964C424.847 129.405 410.966 112.358 410.416 95.0188C409.821 76.3112 409.74 57.5498 410.433 38.8488C411.218 17.661 427.727 2.83093 450.582 2.30247C468.843 1.88025 487.128 1.90954 505.39 2.30571C530.663 2.85399 548.972 20.262 549.439 43.5508C549.894 66.2117 533.183 83.5226 508.268 86.3254C505.93 86.5884 503.663 87.4772 501.363 88.0753C501.417 89.1176 501.472 90.1599 501.527 91.2021ZM453.285 90.9966C454.733 91.7143 456.182 92.432 457.631 93.1497C457.667 59.9049 476.551 46.564 505.597 42.878H453.285V90.9966Z" fill="white"/>
<path d="M327.706 82.9824C314.353 126.702 301.951 134.88 259.321 129.127C257.938 114.068 253.886 97.1115 265.839 85.5156C276.023 75.6353 290.742 70.4292 302.698 63.5886C288.239 63.4212 270.843 60.0835 263.754 42.8556C258.806 30.8313 258.771 16.7858 256.562 3.77081C299.4 -4.48621 311.748 3.21688 327.306 45.4434C345.024 1.87752 350.456 -1.61653 395.991 2.41983C397.023 17.4898 401.142 34.4951 389.195 46.0331C379.038 55.8422 364.203 60.8078 355.464 65.6741C363.95 70.4206 380.383 74.7905 388.439 85.4758C396.48 96.1409 396.131 113.132 399.411 127.141C358.815 138.462 337.857 125.169 327.706 82.9824Z" fill="white"/>
<path d="M650.771 129.402C629.256 129.402 609.203 130.631 589.384 129.005C574.114 127.752 561.111 113.14 560.549 96.863C559.481 65.9501 560.24 34.9741 560.24 3.02148H601.643V91.257C615.897 91.257 628.531 91.5091 641.147 91.1576C648.152 90.9626 651.154 93.4531 650.861 100.646C650.49 109.756 650.771 118.893 650.771 129.402Z" fill="white"/>
<path d="M204.913 3.41992H246.032V130.229H204.913V3.41992Z" fill="white"/>
<path d="M42.7467 187.52V274.85H0.665222C0.665222 244.029 -1.00755 212.976 1.23853 182.209C2.80111 160.806 25.9673 145.905 48.5354 147.405C71.377 148.922 89.2294 166.97 90.4844 190.37C91.0227 200.409 90.4983 210.502 90.7129 220.565C90.7817 223.795 91.6717 227.007 92.1859 230.228C93.5867 230.125 94.9875 230.023 96.3884 229.921C96.3884 217.597 96.1504 205.267 96.4363 192.95C97.0973 164.473 118.563 145.295 146.808 147.68C167.843 149.456 186.105 166.749 186.756 187.788C187.645 216.555 186.978 245.369 186.978 274.998H144.872V186.989C143.384 186.832 141.895 186.676 140.406 186.519C139.88 189.981 138.953 193.436 138.9 196.906C138.732 207.884 139.266 218.882 138.848 229.847C137.826 256.606 119.389 275.199 93.9419 275.607C68.2474 276.018 48.6917 256.892 47.6606 229.694C47.128 215.642 47.5671 201.552 47.5671 187.479C45.9603 187.493 44.3536 187.507 42.7467 187.52Z" fill="white"/>
<path d="M450.393 190.496V147.55H493.013V275.202C471.869 275.202 450.997 275.208 430.125 275.2C417.772 275.195 405.412 275.43 393.068 275.095C370.506 274.484 354.848 258.506 354.37 235.586C354.074 221.407 354.145 207.215 354.351 193.033C354.714 168.101 370.492 150.237 394.606 147.129C417.851 144.133 438.291 158.648 444.476 182.536C445.207 185.357 445.968 188.171 446.715 190.988C447.941 190.824 449.167 190.66 450.393 190.496ZM398.518 234.569H450.032C420.779 231.54 403.414 217.141 398.518 187.519V234.569Z" fill="white"/>
<path d="M292.555 235.944H339.635V275.074C303.401 275.074 267.862 275.906 232.391 274.706C215.874 274.147 201.994 257.1 201.443 239.761C200.849 221.053 200.768 202.292 201.46 183.591C202.245 162.403 218.755 147.573 241.61 147.045C259.87 146.622 278.156 146.652 296.418 147.048C321.691 147.596 339.999 165.004 340.467 188.293C340.922 210.954 324.211 228.265 299.295 231.068C296.957 231.331 294.69 232.219 292.39 232.818C292.445 233.86 292.5 234.902 292.555 235.944ZM244.312 235.739C245.761 236.456 247.21 237.174 248.658 237.892C248.694 204.647 267.578 191.306 296.625 187.62H244.312V235.739Z" fill="white"/>
<path d="M704.596 274.965H662.317V231.536C661.133 231.47 659.949 231.404 658.765 231.338C657.678 234.98 656.593 238.621 655.505 242.263C648.433 265.925 629.167 278.309 604.214 275.234C582.617 272.573 566.785 253.864 566.475 230.278C566.277 215.211 566.178 200.132 566.542 185.071C567.007 165.828 579.43 149.865 598.573 148.509C623.51 146.743 648.725 147.07 673.71 148.479C689.742 149.383 703.247 162.204 704.118 178.912C705.77 210.613 704.596 242.461 704.596 274.965ZM609.775 235.747C611.073 236.244 612.372 236.742 613.671 237.239C614.146 204.769 632.996 191.336 661.618 187.304H609.775V235.747Z" fill="white"/>
<path d="M509.057 146.739H550.175V273.549H509.057V146.739Z" fill="white"/>
</svg>
